PathFileType	4	(X/Y/Z)	C:\Users\Basilio\Documents\Thesis Gigler\squatting_fais\c3dfiles\041\SLS_pre_back4\markers_experimental.trc
DataRate	CameraRate	NumFrames	NumMarkers	Units	OrigDataRate	OrigDataStartFrame	OrigNumFrames
200.000000	200.000000	4	64	mm	200.000000	636	1272
Frame#	Time	FHD			LBHD			RBHD			C7			T10			CLAV			LSHO			LUUPA			LMUPA			LDUPA			LLEP			LMEP			LRAD			LUL			LRFIN			RSHO			RUPA1			RMUPA			RDUPA			RLEP			RMEP			RRAD			RUL			RUFIN			LASI			RASI			USACR			LSACR			RSACR			LTHI1			LTHI2			LTHI3			LTHI4			LLFC			LMFC			LTIB1			LTIB2			LTIB3			LTIB4			LLMAL			LMMAL			LHEE			LMT1			LMT2			LMT5			RTHI			RTHI2			RTHI3			RTHI4			RLFC			RMFC			RTIB1			RTIB2			RTIB3			RTIB4			RLMAL			RMMAL			RHEE			RMT1			RMT2			RMT5			*61			*62			*63			
		X1	Y1	Z1	X2	Y2	Z2	X3	Y3	Z3	X4	Y4	Z4	X5	Y5	Z5	X6	Y6	Z6	X7	Y7	Z7	X8	Y8	Z8	X9	Y9	Z9	X10	Y10	Z10	X11	Y11	Z11	X12	Y12	Z12	X13	Y13	Z13	X14	Y14	Z14	X15	Y15	Z15	X16	Y16	Z16	X17	Y17	Z17	X18	Y18	Z18	X19	Y19	Z19	X20	Y20	Z20	X21	Y21	Z21	X22	Y22	Z22	X23	Y23	Z23	X24	Y24	Z24	X25	Y25	Z25	X26	Y26	Z26	X27	Y27	Z27	X28	Y28	Z28	X29	Y29	Z29	X30	Y30	Z30	X31	Y31	Z31	X32	Y32	Z32	X33	Y33	Z33	X34	Y34	Z34	X35	Y35	Z35	X36	Y36	Z36	X37	Y37	Z37	X38	Y38	Z38	X39	Y39	Z39	X40	Y40	Z40	X41	Y41	Z41	X42	Y42	Z42	X43	Y43	Z43	X44	Y44	Z44	X45	Y45	Z45	X46	Y46	Z46	X47	Y47	Z47	X48	Y48	Z48	X49	Y49	Z49	X50	Y50	Z50	X51	Y51	Z51	X52	Y52	Z52	X53	Y53	Z53	X54	Y54	Z54	X55	Y55	Z55	X56	Y56	Z56	X57	Y57	Z57	X58	Y58	Z58	X59	Y59	Z59	X60	Y60	Z60	X61	Y61	Z61	X62	Y62	Z62	X63	Y63	Z63	X64	Y64	Z64	

637	3.18	-7.531078338623049	1454.686401367188	-1104.959106445313	-191.0147705078125	1389.698974609375	-1168.135498046875	-161.0693969726563	1394.594970703125	-1017.413146972656	-237.431381225586	1288.484497070313	-1097.118896484375	-411.086151123047	1038.907104492188	-1072.409423828125	-111.9880523681641	1181.262817382813	-1106.63330078125	-161.7597198486328	1289.06787109375	-1223.914794921875	-54.60403442382814	1299.001220703125	-1342.95068359375	-10.75193500518799	1302.591064453125	-1320.821166992188	4.475893020629884	1300.629150390625	-1380.181274414063	47.95552062988282	1297.698974609375	-1396.808959960938	84.11998748779298	1222.0849609375	-1373.831909179688	323.9515991210938	1317.82470703125	-1426.903686523438	297.8612060546876	1337.131469726563	-1492.687866210938	383.1230773925782	1364.230834960938	-1431.205444335938	-148.2285766601563	1293.11767578125	-993.7102661132815	1.575505614280701	1291.943969726563	-894.5032348632815	14.89441680908203	1315.925048828125	-937.801696777344	67.16067504882814	1315.256225585938	-909.123718261719	111.8302688598633	1319.854858398438	-916.7691040039065	131.9988861083985	1240.044555664063	-937.986022949219	368.4684753417969	1329.725219726563	-1008.272521972656	371.5309448242188	1354.025756835938	-936.6749267578127	450.7136535644532	1349.445678710938	-1020.947570800781	-324.6666564941407	819.6448974609377	-1172.964111328125	-361.3866882324219	793.8867797851565	-954.3401489257815	-482.0294494628907	940.3325195312502	-1072.555053710938	-504.2911987304689	925.247253417969	-1104.845581054688	-511.7625427246095	918.9135742187502	-1050.020874023438	-357.8237304687501	662.9878540039064	-1244.219116210938	-279.6297607421876	633.9234008789064	-1227.376953125	-248.0307159423829	667.2412109375001	-1214.769287109375	-263.4163513183594	575.3854370117189	-1215.9208984375	-146.813217163086	461.7817993164064	-1165.229858398438	-158.0900421142578	459.9697875976564	-1050.616088867188	-198.5455169677735	290.1014404296876	-1090.973022460938	-252.7492218017579	263.4844360351563	-1157.32568359375	-225.0751495361329	248.2965087890626	-1125.095092773438	-269.7205505371094	187.3796081542969	-1087.841430664063	-363.1703796386719	125.6396408081055	-1133.461181640625	-336.2920532226563	134.3302001953125	-1045.091674804688	-441.2219238281251	111.6716003417969	-1095.727416992188	-238.8468475341797	60.6540985107422	-1049.0361328125	-227.4404907226563	55.89472579956056	-1093.386352539063	-270.3749389648438	42.64176177978516	-1152.10400390625	-466.2283630371095	552.3807373046876	-907.3978271484377	-420.840057373047	502.544891357422	-907.030944824219	-388.7893066406251	507.4365844726564	-913.466491699219	-440.0595703125001	421.154998779297	-926.0549316406252	-436.9837036132814	342.4199829101563	-935.6733398437502	-447.1278076171876	313.4520568847657	-1047.198486328125	-578.5874633789064	273.7510070800782	-937.2307739257815	-667.0847167968751	346.2940673828126	-925.9953613281252	-661.2305297851564	299.8188476562501	-923.8796997070315	-705.7991333007814	268.1113281250001	-946.6878662109377	-833.3505859375002	304.1439819335938	-929.3985595703127	-805.359802246094	277.6208496093751	-1006.593933105469	-882.3919067382815	351.4445190429688	-981.4003906250002	-837.0059204101565	139.7631072998047	-994.9573974609377	-837.9516601562502	132.91943359375	-941.867614746094	-876.078063964844	168.3054351806641	-898.530456542969	-4216.924316406251	853.2230224609377	-3944.829101562501	nan	nan	nan	nan	nan	nan	
638	3.185	-7.217259883880617	1453.924438476563	-1105.24267578125	-190.7408905029297	1389.198120117188	-1168.405029296875	-160.6123657226563	1394.07958984375	-1017.502868652344	-237.1738891601563	1288.0615234375	-1097.235717773438	-410.9277343750001	1038.549926757813	-1072.43896484375	-111.5782852172852	1180.618896484375	-1106.671997070313	-161.4477233886719	1288.501098632813	-1223.929077148438	-54.81325912475587	1298.538452148438	-1342.791259765625	-10.49624824523926	1301.912963867188	-1320.688232421875	4.757383346557618	1299.893310546875	-1380.045776367188	48.35297775268556	1297.076171875	-1396.661987304688	84.30440521240236	1221.605346679688	-1373.221069335938	324.6080932617188	1316.827270507813	-1426.708374023438	298.1587829589844	1336.573120117188	-1492.409545898438	383.4888916015626	1363.669799804688	-1430.930419921875	-147.7612915039063	1292.398681640625	-993.8800048828127	1.961313486099244	1291.500122070313	-894.6377563476565	15.10066890716553	1315.404052734375	-937.8933715820315	67.35737609863283	1314.698974609375	-909.1807250976565	112.0662231445313	1319.07958984375	-916.7121582031252	132.3286743164063	1239.41162109375	-937.881774902344	368.9749145507813	1329.021606445313	-1008.144104003906	371.8380432128907	1353.490844726563	-936.4951171875002	450.7825927734376	1348.819213867188	-1020.708984375	-324.8242797851563	819.0859375000002	-1173.156982421875	-361.3771667480469	793.2347412109377	-954.4727783203127	-482.0096435546876	939.9542236328127	-1072.609252929688	-504.2866516113282	924.9080810546877	-1104.91845703125	-511.6343994140626	918.4699707031252	-1049.943237304688	-357.7476501464844	662.7124023437501	-1244.440063476563	-279.5508422851563	633.7239990234376	-1227.567016601563	-247.9648437500001	667.0257568359376	-1214.902954101563	-263.2691345214844	575.2348022460939	-1216.146850585938	-146.646469116211	461.7069702148439	-1165.371459960938	-157.7425231933594	459.8104858398439	-1050.943115234375	-198.4145965576172	289.8645019531251	-1091.077758789063	-252.6338500976563	263.4381713867188	-1157.505737304688	-224.9776611328126	248.0362243652344	-1125.334594726563	-269.6222839355469	187.3130950927735	-1088.103515625	-363.1267700195313	125.5938186645508	-1133.56298828125	-336.2772827148438	134.3620910644532	-1045.2197265625	-441.2277832031251	111.7291107177735	-1095.790771484375	-238.8619232177735	60.66362762451173	-1049.015625	-227.4701538085938	55.90499496459962	-1093.392578125	-270.3871459960938	42.52532196044923	-1152.14404296875	-466.2539062500001	551.9706420898439	-907.5170898437502	-420.8476562500001	502.198455810547	-907.0725708007815	-388.9082336425782	506.9856567382814	-913.431823730469	-440.1382446289064	420.6584472656251	-926.0662231445315	-437.0004272460939	341.9495544433594	-935.751159667969	-447.1092529296876	313.0373535156251	-1047.239868164063	-578.7916870117189	273.5865173339844	-937.2352294921877	-667.1353149414064	346.1450805664063	-926.3279418945315	-661.3576049804689	299.6677856445313	-924.1496582031252	-705.8973999023439	268.0292663574219	-946.951599121094	-833.4770507812502	303.8672790527344	-930.006530761719	-805.3726196289065	277.5508117675782	-1007.076416015625	-882.563171386719	351.3172607421876	-981.9279785156252	-836.7413330078127	139.710678100586	-995.7510375976565	-837.8948974609377	132.797607421875	-942.5640869140627	-876.187927246094	167.9893035888672	-899.4056396484377	-4217.113769531251	853.202575683594	-3944.608154296876	nan	nan	nan	nan	nan	nan	
639	3.19	-6.762061119079592	1453.1728515625	-1105.2822265625	-190.2397003173828	1388.506469726563	-1168.423095703125	-160.1241912841797	1393.43798828125	-1017.644470214844	-236.7457122802735	1287.5009765625	-1097.444458007813	-410.7742309570314	1038.052612304688	-1072.554565429688	-111.3192901611328	1179.862060546875	-1106.724243164063	-161.0980682373047	1287.943481445313	-1223.900756835938	-54.51956176757814	1297.872802734375	-1342.737182617188	-10.12759304046631	1301.148071289063	-1320.562133789063	5.829317092895509	1298.98583984375	-1379.768188476563	48.77901077270509	1296.465209960938	-1396.45703125	84.78276824951173	1220.919921875	-1373.504272460938	324.8483276367188	1316.263793945313	-1426.44091796875	298.5095520019532	1336.008911132813	-1492.099609375	383.9494628906251	1363.128173828125	-1430.596435546875	-147.4801635742188	1291.890747070313	-993.944030761719	2.169867753982544	1291.017700195313	-894.6399536132815	15.37608718872071	1314.7333984375	-937.9798583984377	67.66930389404298	1314.105834960938	-909.1826782226565	112.2052154541016	1318.574096679688	-916.7181396484377	132.5614776611328	1238.662475585938	-937.6710205078127	369.3557434082032	1328.339477539063	-1007.969421386719	372.0580749511719	1352.67724609375	-936.3067016601565	451.1364746093751	1348.0556640625	-1020.522766113281	-324.9992065429688	818.5696411132815	-1173.3310546875	-361.3813476562501	792.6936645507815	-954.594421386719	-481.9172973632814	939.606140136719	-1072.661987304688	-504.3122863769532	924.5939941406252	-1104.918823242188	-511.6614379882814	918.155944824219	-1050.014038085938	-357.7194213867188	662.4557495117189	-1244.650512695313	-279.4188842773438	633.5788574218751	-1227.771484375	-248.3743896484376	667.2209472656251	-1215.314575195313	-263.1781921386719	574.9169921875001	-1216.364624023438	-146.4250793457032	461.639862060547	-1165.533813476563	-157.2851867675782	459.7742919921876	-1052.367065429688	-198.2181854248047	289.8843078613282	-1091.315551757813	-252.6662597656251	263.3739013671876	-1157.739013671875	-224.7925109863282	247.2165679931641	-1125.700073242188	-269.5653686523438	187.4131622314453	-1088.298950195313	-363.1800842285157	125.5961303710938	-1133.7080078125	-336.1657104492188	134.3869323730469	-1045.310791015625	-441.2268371582032	111.7304306030274	-1095.821166992188	-238.8624267578126	60.69652557373048	-1049.093383789063	-227.4391479492188	55.93581771850587	-1093.453247070313	-270.4475097656251	42.46456146240235	-1152.129516601563	-466.3575134277345	551.5449829101564	-907.5777587890627	-420.9634094238282	501.6316833496095	-907.1159667968752	-388.9610595703126	506.6499633789064	-913.4625244140627	-440.2015075683595	420.2261047363282	-926.088806152344	-437.102752685547	341.6333618164063	-935.8228149414065	-447.9466247558595	313.3166503906251	-1047.526245117188	-579.0926513671876	273.1019287109376	-937.3244628906252	-667.2114257812501	346.0048522949219	-926.667175292969	-661.5433959960939	299.5195007324219	-924.420104980469	-706.0457153320314	267.8240966796876	-947.3901367187502	-833.477478027344	303.7001342773438	-930.528503417969	-805.4629516601565	277.5396728515626	-1007.615295410156	-882.6937255859377	351.0020446777344	-982.3516845703127	-836.7849731445315	139.5765838623047	-996.273620605469	-837.8169555664065	132.5466613769532	-943.1634521484377	-876.1931762695315	167.8995971679688	-899.9404907226565	-4216.768554687501	853.1167602539065	-3944.685058593751	nan	nan	nan	nan	nan	nan	
640	3.195	-6.481475830078127	1452.503662109375	-1105.394165039063	-189.8748016357422	1387.911254882813	-1168.506713867188	-159.8197937011719	1392.868408203125	-1017.709350585938	-236.3391113281251	1286.979248046875	-1097.60595703125	-410.6202392578126	1037.717651367188	-1072.543701171875	-110.8220748901367	1179.275390625	-1106.684204101563	-160.8528747558594	1287.316650390625	-1223.9189453125	-54.18909454345705	1297.359375	-1342.680419921875	-9.825294494628908	1300.556762695313	-1320.442749023438	6.114218711853029	1298.512084960938	-1379.868774414063	49.03193664550783	1295.774658203125	-1396.301635742188	85.12441253662111	1220.276489257813	-1373.21337890625	324.8719482421876	1315.987182617188	-1426.250244140625	299.1678161621094	1335.33544921875	-1491.866455078125	384.3626708984376	1362.66748046875	-1430.25048828125	-147.1482696533203	1291.288208007813	-994.079040527344	2.551831960678101	1290.578369140625	-894.7092285156252	15.60628890991211	1314.106079101563	-938.0888671875002	67.99292755126955	1313.725219726563	-909.2207031250002	112.5012817382813	1318.188842773438	-916.763366699219	133.1372680664063	1238.106201171875	-937.7504882812502	369.7520141601563	1327.554321289063	-1007.801208496094	372.5826416015626	1352.132568359375	-936.1973876953127	451.6451110839845	1347.193237304688	-1020.29931640625	-324.9038085937501	818.0648193359377	-1173.473022460938	-361.2612609863282	792.2148437500002	-954.7252197265627	-481.5967407226564	939.047302246094	-1072.754638671875	-504.327362060547	924.2928466796877	-1104.91259765625	-511.3560791015626	917.4188232421877	-1049.98193359375	-357.5619506835938	662.1959228515626	-1244.81884765625	-279.2749328613282	633.3886108398439	-1227.956176757813	-248.3411712646485	667.0495605468751	-1215.450439453125	-263.1242065429688	574.7735595703126	-1216.502563476563	-146.2315521240235	461.5463256835939	-1165.741455078125	-157.0497741699219	459.6186523437501	-1052.557006835938	-197.9929199218751	289.8878173828126	-1091.55029296875	-252.5166931152344	263.3579711914063	-1157.9580078125	-224.8322906494141	247.5180358886719	-1126.1865234375	-269.4907531738282	187.3133392333985	-1088.5625	-363.1357727050782	125.5492248535157	-1133.8720703125	-336.0605163574219	134.5480346679688	-1045.594848632813	-441.236053466797	111.7283630371094	-1095.9453125	-238.8997802734376	60.71878051757814	-1049.099853515625	-227.4695739746094	55.8903045654297	-1093.496704101563	-270.3845214843751	42.37360763549805	-1152.235229492188	-466.4279785156251	551.1328125000001	-907.6623535156252	-420.9826049804689	501.317108154297	-907.2063598632815	-388.9988403320314	506.1818847656251	-913.5056762695315	-440.260467529297	419.7087707519532	-926.157897949219	-437.3196105957032	341.1471557617188	-936.1203613281252	-448.066864013672	313.0323181152344	-1047.60546875	-579.1564331054689	272.9182128906251	-937.2947998046877	-667.3215942382814	345.8311157226563	-927.0291748046877	-661.6394653320314	299.3459167480469	-924.717224121094	-706.1945800781251	267.6949768066407	-947.7476806640627	-833.497741699219	303.5063476562501	-931.1489868164065	-805.5335083007815	277.5267333984376	-1008.240478515625	-882.6923828125002	350.9048156738282	-983.1509399414065	-836.4412231445315	139.48046875	-997.0950927734377	-837.7604980468752	132.3724822998047	-943.6402587890627	-876.1649169921877	167.7126770019532	-900.5989990234377	-4217.092773437501	853.1219482421877	-3944.668212890626	nan	nan	nan	nan	nan	nan	
